<?xml version="1.0" standalone="no"?>
<!DOCTYPE svg PUBLIC "-//W3C//DTD SVG 20010904//EN"
 "http://www.w3.org/TR/2001/REC-SVG-20010904/DTD/svg10.dtd">
<svg version="1.0" xmlns="http://www.w3.org/2000/svg"
 width="223.000000pt" height="223.000000pt" viewBox="0 0 223.000000 223.000000"
 preserveAspectRatio="xMidYMid meet">
<metadata>
Created by potrace 1.11, written by Peter Selinger 2001-2013
</metadata>
<g transform="translate(0.000000,223.000000) scale(0.100000,-0.100000)"
fill="#000000" stroke="none">
<path d="M75 2187 c2 -28 -2 -48 -13 -61 -13 -14 -16 -34 -14 -89 1 -42 7 -74
15 -79 6 -4 9 -8 4 -8 -4 0 -1 -13 8 -29 8 -16 18 -53 21 -83 6 -52 32 -118
34 -88 3 31 14 77 24 101 4 8 3 41 -2 71 -15 95 19 174 105 241 13 10 23 27
23 38 0 10 5 19 11 19 5 0 9 -9 7 -21 -2 -16 5 -24 35 -34 85 -29 119 -91 123
-222 l3 -93 -41 -47 c-75 -86 -149 -211 -173 -293 -7 -22 -6 -23 9 -11 19 16
22 1 5 -31 -6 -12 -7 -18 -1 -14 11 7 20 -41 18 -97 0 -20 2 -37 5 -37 3 0 6
-15 7 -33 1 -19 6 -46 11 -60 8 -22 7 -27 -9 -32 -20 -6 -40 -76 -40 -138 0
-67 54 -287 71 -287 4 0 9 -12 11 -27 3 -30 39 -59 84 -68 l31 -6 -4 62 c-3
44 -1 64 9 70 10 7 10 9 0 9 -14 0 -13 58 2 67 5 4 7 -3 4 -15 -4 -16 -2 -22
9 -22 12 0 14 7 9 35 -4 20 -2 44 4 55 6 12 13 43 15 70 1 27 6 53 10 59 7 12
-19 40 -75 82 -52 40 -33 43 40 6 61 -30 65 -34 72 -75 4 -23 4 -82 -1 -130
-7 -80 -6 -219 1 -252 2 -9 -6 -16 -20 -18 -13 -2 -21 -9 -19 -15 2 -6 -2 -23
-10 -37 -7 -14 -9 -26 -4 -28 9 -3 5 -78 -5 -94 -3 -4 0 -8 6 -8 7 0 10 -6 8
-12 -7 -20 -31 -15 -34 6 -2 11 -6 31 -10 45 -7 25 -7 25 -15 -9 -9 -38 -1
-179 10 -195 5 -5 7 -22 6 -37 -2 -34 2 -35 15 -5 8 17 9 15 4 -13 -12 -64
-23 -83 -44 -77 -11 3 -18 1 -15 -3 3 -5 -10 -13 -29 -18 -19 -6 -55 -24 -81
-42 -25 -18 -49 -29 -53 -25 -3 3 -1 10 6 14 9 5 5 13 -13 29 -15 13 -22 28
-19 37 4 9 1 15 -8 15 -7 0 -14 10 -15 22 -2 20 -18 38 -36 38 -5 0 -5 -5 -1
-11 4 -7 -1 -7 -16 1 -20 11 -21 10 -19 -17 2 -15 0 -33 -4 -39 -3 -6 -8 -27
-11 -47 -5 -42 -14 -60 -25 -52 -5 2 -8 -5 -7 -18 1 -17 -9 -27 -41 -42 -23
-11 -42 -23 -43 -27 0 -5 296 -8 658 -8 601 0 660 1 682 17 46 31 175 138 209
173 l34 35 -6 -52 c-3 -29 -17 -80 -30 -113 l-25 -60 314 0 c173 0 314 2 314
4 0 3 -26 13 -57 22 -32 10 -62 21 -66 24 -8 7 -10 1191 -2 1340 2 47 7 216
10 375 3 160 8 329 11 378 l5 87 -292 0 -293 0 -28 -27 -27 -26 -83 18 c-97
22 -377 32 -435 16 -29 -8 -42 -7 -60 4 -19 13 -82 15 -391 15 l-369 -1 2 -42z
m565 -197 c0 -5 7 -10 15 -10 16 0 20 -18 7 -35 -4 -6 -22 -12 -39 -13 -27 -3
-33 0 -33 17 0 20 24 51 41 51 5 0 9 -4 9 -10z m842 -132 c7 -7 25 -19 40 -27
68 -35 152 -170 174 -279 22 -114 28 -167 28 -270 1 -82 -1 -95 -19 -108 -17
-13 -21 -12 -40 11 -29 35 -102 66 -132 54 -14 -5 -23 -5 -23 1 0 6 -16 4 -36
-5 -27 -11 -46 -13 -71 -6 -59 16 -143 -22 -143 -65 0 -46 -129 -86 -160 -49
-7 8 -18 15 -25 15 -8 0 -23 12 -34 28 -11 15 -27 34 -35 43 -15 15 -91 37
-131 37 -53 1 -122 14 -142 28 -22 14 -32 44 -15 44 4 0 8 11 8 25 1 15 -2 22
-9 18 -7 -4 -8 0 -4 11 4 10 1 27 -5 39 -7 12 -14 27 -14 32 -1 6 -3 12 -4 15
-7 15 -4 230 3 230 5 0 6 4 3 9 -3 4 4 19 16 32 19 22 20 22 16 4 -4 -16 0
-20 18 -20 17 0 20 3 12 13 -7 8 -7 12 1 12 7 0 9 5 6 10 -3 6 -2 10 3 10 5 0
12 9 15 20 3 13 1 18 -6 14 -7 -3 -4 1 5 9 10 8 15 17 11 20 -3 4 0 7 8 7 12
0 12 2 -1 10 -12 7 -10 11 10 18 25 9 53 5 46 -7 -8 -12 130 -5 158 9 24 12
30 12 40 0 6 -9 21 -14 34 -12 13 2 29 -1 36 -7 7 -6 16 -8 20 -4 9 9 25 12
124 22 45 5 85 10 87 13 12 11 114 8 127 -4z m-922 -655 c0 -7 -7 -13 -15 -13
-8 0 -18 -1 -22 -2 -3 -2 -7 5 -9 15 -1 9 2 17 7 17 5 0 9 8 9 17 0 15 2 14
15 -3 8 -10 15 -25 15 -31z m1305 -12 c3 -16 1 -56 -5 -88 -6 -32 -15 -121
-19 -197 -8 -135 -9 -140 -35 -163 -15 -13 -38 -23 -52 -23 -14 0 -23 -4 -20
-8 10 -16 -14 -209 -33 -271 -35 -113 -154 -258 -188 -230 -10 9 -13 7 -13 -9
0 -11 -7 -25 -15 -32 -12 -10 -18 -8 -35 11 -16 20 -19 21 -20 7 0 -10 6 -18
13 -18 6 0 4 -5 -6 -11 -10 -6 -25 -8 -33 -5 -9 3 -12 1 -9 -4 3 -6 -1 -10 -9
-10 -9 0 -16 -4 -16 -10 0 -5 -11 -10 -25 -10 -14 0 -25 -3 -25 -8 0 -7 -52
-33 -67 -34 -4 0 -13 -4 -20 -10 -7 -5 -17 -7 -22 -4 -5 4 -12 2 -16 -3 -4 -7
-15 -7 -31 -1 -14 6 -38 10 -54 10 -18 0 -34 8 -44 21 -9 13 -21 19 -30 16 -9
-4 -16 -2 -16 3 0 6 -4 9 -9 7 -11 -3 -71 64 -71 80 0 16 -44 63 -59 63 -6 0
-11 8 -11 19 0 13 -10 20 -32 25 -27 5 -30 9 -18 17 11 8 8 9 -14 4 -23 -5
-27 -3 -23 9 5 12 2 13 -17 6 -19 -7 -26 -4 -40 21 -10 17 -15 36 -13 44 3 7
3 16 -1 19 -12 13 -18 59 -23 176 -1 36 -6 68 -12 71 -5 4 -10 24 -11 45 -1
51 23 62 139 64 134 2 127 3 115 -21 -6 -11 -11 -30 -10 -42 1 -12 1 -25 0
-29 -4 -13 -7 -28 -9 -38 0 -5 -12 -10 -25 -10 -14 0 -28 -4 -31 -10 -3 -6 1
-7 10 -4 11 5 14 2 9 -10 -3 -9 -10 -16 -14 -16 -4 0 -13 -14 -19 -31 -13 -36
5 -109 45 -189 13 -27 24 -53 24 -58 0 -6 14 -9 31 -7 24 3 30 1 25 -10 -11
-29 4 -15 19 17 8 18 13 25 10 16 -7 -27 14 -21 27 7 6 14 17 25 25 25 9 0 11
8 7 26 -6 21 -3 25 12 23 11 -2 25 0 32 4 6 5 12 4 12 -2 0 -14 31 -18 63 -8
46 15 31 29 -27 24 -61 -5 -116 20 -116 53 0 23 17 35 33 23 7 -4 50 -5 97 -2
47 3 74 7 60 9 -14 1 -41 2 -61 1 -20 -2 -40 2 -43 7 -3 6 -25 13 -49 17 -40
7 -67 20 -67 34 0 7 57 34 64 29 3 -2 11 6 19 16 8 11 19 16 25 12 7 -4 12 -2
12 5 0 6 8 9 18 7 18 -5 42 13 42 30 0 6 -11 17 -24 25 -37 24 -51 79 -37 141
6 28 10 78 9 111 -3 56 -1 60 20 63 33 5 46 -10 88 -94 46 -94 80 -124 142
-125 137 -3 243 15 282 48 31 26 53 84 65 175 11 86 26 66 23 -31 l-3 -90 23
29 c13 16 22 32 22 35 -1 3 10 27 24 53 36 69 39 112 10 135 -27 21 -32 47 -9
47 8 0 15 5 15 10 0 6 9 10 19 10 13 0 21 -9 26 -29z m-258 -47 c-3 -3 -12 -4
-19 -1 -8 3 -5 6 6 6 11 1 17 -2 13 -5z m-35 -25 c-15 -6 -30 -5 -40 1 -13 7
-8 9 23 9 35 0 37 -1 17 -10z m-276 -55 c-9 -24 82 -41 117 -22 14 7 17 7 13
-1 -8 -13 10 -13 39 -1 15 7 16 9 4 9 -12 1 -15 8 -12 25 5 22 8 23 24 13 11
-7 17 -17 15 -23 -4 -11 36 -24 74 -24 10 0 32 13 48 30 20 20 36 28 47 23 15
-5 17 -18 13 -88 -8 -145 -43 -174 -223 -182 -86 -4 -104 -2 -130 15 -41 26
-85 110 -92 176 -5 47 -3 55 18 69 17 13 26 14 36 5 8 -6 12 -17 9 -24z m144
16 c0 -5 -5 -10 -11 -10 -5 0 -7 5 -4 10 3 6 8 10 11 10 2 0 4 -4 4 -10z
m-565 -10 c3 -5 1 -10 -4 -10 -6 0 -11 5 -11 10 0 6 2 10 4 10 3 0 8 -4 11
-10z m49 -5 c3 -8 4 -15 2 -15 -3 0 -11 -3 -19 -6 -12 -4 -14 0 -10 15 6 25
18 27 27 6z m6 -50 c0 -8 -8 -20 -19 -27 -20 -12 -17 -20 22 -56 23 -22 22
-77 -3 -102 -38 -38 -225 -26 -280 18 -27 22 -39 94 -19 119 12 15 12 16 -3
10 -19 -7 -23 0 -10 20 6 10 13 9 33 -1 50 -26 187 -50 149 -26 -19 12 -15 15
45 38 62 25 85 26 85 7z m47 -401 c-3 -3 -12 -4 -19 -1 -8 3 -5 6 6 6 11 1 17
-2 13 -5z m21 -122 c2 -14 -2 -22 -11 -22 -17 0 -30 27 -21 41 9 16 29 4 32
-19z m-505 -62 c3 -11 1 -18 -4 -14 -5 3 -9 12 -9 20 0 20 7 17 13 -6z m12
-58 c1 -4 6 -23 13 -42 14 -40 15 -56 12 -158 -3 -97 -20 -81 -31 30 -5 46 -9
90 -10 98 -4 34 2 93 9 86 4 -4 7 -11 7 -14z"/>
<path d="M1235 720 c28 -12 47 -12 40 0 -3 6 -18 10 -33 9 -24 0 -25 -1 -7 -9z"/>
<path d="M1253 513 c9 -2 23 -2 30 0 6 3 -1 5 -18 5 -16 0 -22 -2 -12 -5z"/>
<path d="M1330 504 c0 -9 -9 -18 -20 -21 -11 -3 -20 -9 -20 -14 0 -15 47 -10
60 6 7 9 21 13 31 10 27 -9 43 3 28 21 -16 20 -79 19 -79 -2z"/>
<path d="M1260 466 c0 -15 -11 -20 -37 -17 -6 1 -14 -3 -18 -9 -8 -13 18 -13
50 2 26 12 32 23 15 33 -5 3 -10 -1 -10 -9z"/>
<path d="M1054 352 c4 -8 2 -10 -7 -6 -14 5 -33 -24 -22 -34 3 -3 5 0 5 7 0
10 7 9 25 -3 14 -9 25 -12 25 -7 0 5 7 11 15 15 9 3 15 0 15 -10 0 -8 -4 -12
-10 -9 -6 3 -7 -1 -4 -9 9 -24 24 -8 24 25 0 22 -5 29 -19 29 -11 0 -27 3 -37
7 -12 4 -15 3 -10 -5z"/>
<path d="M1130 324 c0 -14 3 -14 15 -4 8 7 15 14 15 16 0 2 -7 4 -15 4 -8 0
-15 -7 -15 -16z"/>
<path d="M838 963 c6 -2 18 -2 25 0 6 3 1 5 -13 5 -14 0 -19 -2 -12 -5z"/>
<path d="M110 1723 c0 -5 5 -15 10 -23 7 -12 9 -10 7 8 -1 19 -17 33 -17 15z"/>
<path d="M465 794 c-9 -15 -12 -23 -6 -20 6 4 11 0 11 -8 0 -32 16 -15 18 19
3 42 0 43 -23 9z"/>
<path d="M505 690 c-3 -5 -1 -10 4 -10 6 0 11 5 11 10 0 6 -2 10 -4 10 -3 0
-8 -4 -11 -10z"/>
<path d="M440 229 c-7 -11 -10 -23 -7 -25 2 -2 9 7 15 21 14 30 7 33 -8 4z"/>
</g>
</svg>
