<?xml version="1.0" encoding="UTF-8"?>
<svg width="215px" height="223px" viewBox="0 0 215 223" version="1.1" xmlns="http://www.w3.org/2000/svg" xmlns:xlink="http://www.w3.org/1999/xlink">
    <!-- Generator: Sketch 52.5 (67469) - http://www.bohemiancoding.com/sketch -->
    <title>safari-pinned-tab</title>
    <desc>Created with Sketch.</desc>
    <g id="Page-1" stroke="none" stroke-width="1" fill="none" fill-rule="evenodd">
        <g id="safari-pinned-tab" fill="#000000">
            <path d="M7.5,218.7 C7.7,215.9 7.3,213.9 6.2,212.6 C4.9,211.2 4.6,209.2 4.8,203.7 C4.9,199.5 5.5,196.3 6.3,195.8 C6.9,195.4 7.2,195 6.7,195 C6.3,195 6.6,193.7 7.5,192.1 C8.3,190.5 9.3,186.8 9.6,183.8 C10.2,178.6 12.8,172 13,175 C13.3,178.1 14.4,182.7 15.4,185.1 C15.8,185.9 15.7,189.2 15.2,192.2 C13.7,201.7 17.1,209.6 25.7,216.3 C27,217.3 28,219 28,220.1 C28,221.1 28.5,222 29.1,222 C29.6,222 30,221.1 29.8,219.9 C29.6,218.3 30.3,217.5 33.3,216.5 C41.8,213.6 45.2,207.4 45.6,194.3 L45.9,185 L41.8,180.3 C34.3,171.7 26.9,159.2 24.5,151 C23.8,148.8 23.9,148.7 25.4,149.9 C27.3,151.5 27.6,150 25.9,146.8 C25.3,145.6 25.2,145 25.8,145.4 C26.9,146.1 27.8,141.3 27.6,135.7 C27.6,133.7 27.8,132 28.1,132 C28.4,132 28.7,130.5 28.8,128.7 C28.9,126.8 29.4,124.1 29.9,122.7 C30.7,120.5 30.6,120 29,119.5 C27,118.9 25,111.9 25,105.7 C25,99 30.4,77 32.1,77 C32.5,77 33,75.8 33.2,74.3 C33.5,71.3 37.1,68.4 41.6,67.5 L44.7,66.9 L44.3,73.1 C44,77.5 44.2,79.5 45.2,80.1 C46.2,80.8 46.2,81 45.2,81 C43.8,81 43.9,86.8 45.4,87.7 C45.9,88.1 46.1,87.4 45.8,86.2 C45.4,84.6 45.6,84 46.7,84 C47.9,84 48.1,84.7 47.6,87.5 C47.2,89.5 47.4,91.9 48,93 C48.6,94.2 49.3,97.3 49.5,100 C49.6,102.7 50.1,105.3 50.5,105.9 C51.2,107.1 48.6,109.9 43,114.1 C37.8,118.1 39.7,118.4 47,114.7 C53.1,111.7 53.5,111.3 54.2,107.2 C54.6,104.9 54.6,99 54.1,94.2 C53.4,86.2 53.5,72.3 54.2,69 C54.4,68.1 53.6,67.4 52.2,67.2 C50.9,67 50.1,66.3 50.3,65.7 C50.5,65.1 50.1,63.4 49.3,62 C48.6,60.6 48.4,59.4 48.9,59.2 C49.8,58.9 49.4,51.4 48.4,49.8 C48.1,49.4 48.4,49 49,49 C49.7,49 50,48.4 49.8,47.8 C49.1,45.8 46.7,46.3 46.4,48.4 C46.2,49.5 45.8,51.5 45.4,52.9 C44.7,55.4 44.7,55.4 43.9,52 C43,48.2 43.8,34.1 44.9,32.5 C45.4,32 45.6,30.3 45.5,28.8 C45.3,25.4 45.7,25.3 47,28.3 C47.8,30 47.9,29.8 47.4,27 C46.2,20.6 45.1,18.7 43,19.3 C41.9,19.6 41.2,19.4 41.5,19 C41.8,18.5 40.5,17.7 38.6,17.2 C36.7,16.6 33.1,14.8 30.5,13 C28,11.2 25.6,10.1 25.2,10.5 C24.9,10.8 25.1,11.5 25.8,11.9 C26.7,12.4 26.3,13.2 24.5,14.8 C23,16.1 22.3,17.6 22.6,18.5 C23,19.4 22.7,20 21.8,20 C21.1,20 20.4,21 20.3,22.2 C20.1,24.2 18.5,26 16.7,26 C16.2,26 16.2,25.5 16.6,24.9 C17,24.2 16.5,24.2 15,25 C13,26.1 12.9,26 13.1,23.3 C13.3,21.8 13.1,20 12.7,19.4 C12.4,18.8 11.9,16.7 11.6,14.7 C11.1,10.5 10.2,8.7 9.1,9.5 C8.6,9.7 8.3,9 8.4,7.7 C8.5,6 7.5,5 4.3,3.5 C2,2.4 0.1,1.2 0,0.8 C0,0.3 29.6,-1.42108547e-14 65.8,-1.42108547e-14 C125.9,-1.42108547e-14 131.8,0.1 134,1.7 C138.6,4.8 151.5,15.5 154.9,19 L158.3,22.5 L157.7,17.3 C157.4,14.4 156,9.3 154.7,6 L152.2,-1.42108547e-14 L183.6,-1.42108547e-14 C200.9,-1.42108547e-14 215,0.2 215,0.4 C215,0.6 215,74.8 215,223 L7.3,223 L7.5,218.7 Z M64,199 C64,198.5 64.7,198 65.5,198 C67.1,198 67.5,196.2 66.2,194.5 C65.8,193.9 64,193.3 62.3,193.2 C59.6,192.9 59,193.2 59,194.9 C59,196.9 61.4,200 63.1,200 C63.6,200 64,199.6 64,199 Z M148.2,185.8 C148.9,185.1 150.7,183.9 152.2,183.1 C159,179.6 167.4,166.1 169.6,155.2 C171.8,143.8 172.4,138.5 172.4,128.2 C172.5,120 172.3,118.7 170.5,117.4 C168.8,116.1 168.4,116.2 166.5,118.5 C163.6,122 156.3,125.1 153.3,123.9 C151.9,123.4 151,123.4 151,124 C151,124.6 149.4,124.4 147.4,123.5 C144.7,122.4 142.8,122.2 140.3,122.9 C134.4,124.5 126,120.7 126,116.4 C126,111.8 113.1,107.8 110,111.5 C109.3,112.3 108.2,113 107.5,113 C106.7,113 105.2,114.2 104.1,115.8 C103,117.3 101.4,119.2 100.6,120.1 C99.1,121.6 91.5,123.8 87.5,123.8 C82.2,123.9 75.3,125.2 73.3,126.6 C71.1,128 70.1,131 71.8,131 C72.2,131 72.6,132.1 72.6,133.5 C72.7,135 72.4,135.7 71.7,135.3 C71,134.9 70.9,135.3 71.3,136.4 C71.7,137.4 71.4,139.1 70.8,140.3 C70.1,141.5 69.4,143 69.4,143.5 C69.3,144.1 69.1,144.7 69,145 C68.3,146.5 68.6,168 69.3,168 C69.8,168 69.9,168.4 69.6,168.9 C69.3,169.3 70,170.8 71.2,172.1 C73.1,174.3 73.2,174.3 72.8,172.5 C72.4,170.9 72.8,170.5 74.6,170.5 C76.3,170.5 76.6,170.8 75.8,171.8 C75.1,172.6 75.1,173 75.9,173 C76.6,173 76.8,173.5 76.5,174 C76.2,174.6 76.3,175 76.8,175 C77.3,175 78,175.9 78.3,177 C78.6,178.3 78.4,178.8 77.7,178.4 C77,178.1 77.3,178.5 78.2,179.3 C79.2,180.1 79.7,181 79.3,181.3 C79,181.7 79.3,182 80.1,182 C81.3,182 81.3,182.2 80,183 C78.8,183.7 79,184.1 81,184.8 C83.5,185.7 86.3,185.3 85.6,184.1 C84.8,182.9 98.6,183.6 101.4,185 C103.8,186.2 104.4,186.2 105.4,185 C106,184.1 107.5,183.6 108.8,183.8 C110.1,184 111.7,183.7 112.4,183.1 C113.1,182.5 114,182.3 114.4,182.7 C115.3,183.6 116.9,183.9 126.8,184.9 C131.3,185.4 135.3,185.9 135.5,186.2 C136.7,187.3 146.9,187 148.2,185.8 Z M56,120.3 C56,119.6 55.3,119 54.5,119 C53.7,119 52.7,118.9 52.3,118.8 C52,118.6 51.6,119.3 51.4,120.3 C51.3,121.2 51.6,122 52.1,122 C52.6,122 53,122.8 53,123.7 C53,125.2 53.2,125.1 54.5,123.4 C55.3,122.4 56,120.9 56,120.3 Z M186.5,119.1 C186.8,117.5 186.6,113.5 186,110.3 C185.4,107.1 184.5,98.2 184.1,90.6 C183.3,77.1 183.2,76.6 180.6,74.3 C179.1,73 176.8,72 175.4,72 C174,72 173.1,71.6 173.4,71.2 C174.4,69.6 172,50.3 170.1,44.1 C166.6,32.8 154.7,18.3 151.3,21.1 C150.3,22 150,21.8 150,20.2 C150,19.1 149.3,17.7 148.5,17 C147.3,16 146.7,16.2 145,18.1 C143.4,20.1 143.1,20.2 143,18.8 C143,17.8 143.6,17 144.3,17 C144.9,17 144.7,16.5 143.7,15.9 C142.7,15.3 141.2,15.1 140.4,15.4 C139.5,15.7 139.2,15.5 139.5,15 C139.8,14.4 139.4,14 138.6,14 C137.7,14 137,13.6 137,13 C137,12.5 135.9,12 134.5,12 C133.1,12 132,11.7 132,11.2 C132,10.5 126.8,7.9 125.3,7.8 C124.9,7.8 124,7.4 123.3,6.8 C122.6,6.3 121.6,6.1 121.1,6.4 C120.6,6.8 119.9,6.6 119.5,6.1 C119.1,5.4 118,5.4 116.4,6 C115,6.6 112.6,7 111,7 C109.2,7 107.6,7.8 106.6,9.1 C105.7,10.4 104.5,11 103.6,10.7 C102.7,10.3 102,10.5 102,11 C102,11.6 101.6,11.9 101.1,11.7 C100,11.4 94,18.1 94,19.7 C94,21.3 89.6,26 88.1,26 C87.5,26 87,26.8 87,27.9 C87,29.2 86,29.9 83.8,30.4 C81.1,30.9 80.8,31.3 82,32.1 C83.1,32.9 82.8,33 80.6,32.5 C78.3,32 77.9,32.2 78.3,33.4 C78.8,34.6 78.5,34.7 76.6,34 C74.7,33.3 74,33.6 72.6,36.1 C71.6,37.8 71.1,39.7 71.3,40.5 C71.6,41.2 71.6,42.1 71.2,42.4 C70,43.7 69.4,48.3 68.9,60 C68.8,63.6 68.3,66.8 67.7,67.1 C67.2,67.5 66.7,69.5 66.6,71.6 C66.5,76.7 68.9,77.8 80.5,78 C93.9,78.2 93.2,78.3 92,75.9 C91.4,74.8 90.9,72.9 91,71.7 C91.1,70.5 91.1,69.2 91,68.8 C90.6,67.5 90.3,66 90.1,65 C90.1,64.5 88.9,64 87.6,64 C86.2,64 84.8,63.6 84.5,63 C84.2,62.4 84.6,62.3 85.5,62.6 C86.6,63.1 86.9,62.8 86.4,61.6 C86.1,60.7 85.4,60 85,60 C84.6,60 83.7,58.6 83.1,56.9 C81.8,53.3 83.6,46 87.6,38 C88.9,35.3 90,32.7 90,32.2 C90,31.6 91.4,31.3 93.1,31.5 C95.5,31.8 96.1,31.6 95.6,30.5 C94.5,27.6 96,29 97.5,32.2 C98.3,34 98.8,34.7 98.5,33.8 C97.8,31.1 99.9,31.7 101.2,34.5 C101.8,35.9 102.9,37 103.7,37 C104.6,37 104.8,37.8 104.4,39.6 C103.8,41.7 104.1,42.1 105.6,41.9 C106.7,41.7 108.1,41.9 108.8,42.3 C109.4,42.8 110,42.7 110,42.1 C110,40.7 113.1,40.3 116.3,41.3 C120.9,42.8 119.4,44.2 113.6,43.7 C107.5,43.2 102,45.7 102,49 C102,51.3 103.7,52.5 105.3,51.3 C106,50.9 110.3,50.8 115,51.1 C119.7,51.4 122.4,51.8 121,52 C119.6,52.1 116.9,52.2 114.9,52.1 C112.9,51.9 110.9,52.3 110.6,52.8 C110.3,53.4 108.1,54.1 105.7,54.5 C101.7,55.2 99,56.5 99,57.9 C99,58.6 104.7,61.3 105.4,60.8 C105.7,60.6 106.5,61.4 107.3,62.4 C108.1,63.5 109.2,64 109.8,63.6 C110.5,63.2 111,63.4 111,64.1 C111,64.7 111.8,65 112.8,64.8 C114.6,64.3 117,66.1 117,67.8 C117,68.4 115.9,69.5 114.6,70.3 C110.9,72.7 109.5,78.2 110.9,84.4 C111.5,87.2 111.9,92.2 111.8,95.5 C111.5,101.1 111.7,101.5 113.8,101.8 C117.1,102.3 118.4,100.8 122.6,92.4 C127.2,83 130.6,80 136.8,79.9 C150.5,79.6 161.1,81.4 165,84.7 C168.1,87.3 170.3,93.1 171.5,102.2 C172.6,110.8 174.1,108.8 173.8,99.1 L173.5,90.1 L175.8,93 C177.1,94.6 178,96.2 178,96.5 C177.9,96.8 179,99.2 180.4,101.8 C184,108.7 184.3,113 181.4,115.3 C178.7,117.4 178.2,120 180.5,120 C181.3,120 182,120.5 182,121 C182,121.6 182.9,122 183.9,122 C185.2,122 186,121.1 186.5,119.1 Z M160.7,114.4 C160.4,114.1 159.5,114 158.8,114.3 C158,114.6 158.3,114.9 159.4,114.9 C160.5,115 161.1,114.7 160.7,114.4 Z M157.2,111.9 C155.7,111.3 154.2,111.4 153.2,112 C151.9,112.7 152.4,112.9 155.5,112.9 C159,112.9 159.2,112.8 157.2,111.9 Z M129.6,106.4 C128.7,104 137.8,102.3 141.3,104.2 C142.7,104.9 143,104.9 142.6,104.1 C141.8,102.8 143.6,102.8 146.5,104 C148,104.7 148.1,104.9 146.9,104.9 C145.7,105 145.4,105.7 145.7,107.4 C146.2,109.6 146.5,109.7 148.1,108.7 C149.2,108 149.8,107 149.6,106.4 C149.2,105.3 153.2,104 157,104 C158,104 160.2,105.3 161.8,107 C163.8,109 165.4,109.8 166.5,109.3 C168,108.8 168.2,107.5 167.8,100.5 C167,86 163.5,83.1 145.5,82.3 C136.9,81.9 135.1,82.1 132.5,83.8 C128.4,86.4 124,94.8 123.3,101.4 C122.8,106.1 123,106.9 125.1,108.3 C126.8,109.6 127.7,109.7 128.7,108.8 C129.5,108.2 129.9,107.1 129.6,106.4 Z M144,108 C144,107.5 143.5,107 142.9,107 C142.4,107 142.2,107.5 142.5,108 C142.8,108.6 143.3,109 143.6,109 C143.8,109 144,108.6 144,108 Z M87.5,107 C87.8,106.5 87.6,106 87.1,106 C86.5,106 86,106.5 86,107 C86,107.6 86.2,108 86.4,108 C86.7,108 87.2,107.6 87.5,107 Z M92.4,106.5 C92.7,105.7 92.8,105 92.6,105 C92.3,105 91.5,104.7 90.7,104.4 C89.5,104 89.3,104.4 89.7,105.9 C90.3,108.4 91.5,108.6 92.4,106.5 Z M93,101.5 C93,100.7 92.2,99.5 91.1,98.8 C89.1,97.6 89.4,96.8 93.3,93.2 C95.6,91 95.5,85.5 93,83 C89.2,79.2 70.5,80.4 65,84.8 C62.3,87 61.1,94.2 63.1,96.7 C64.3,98.2 64.3,98.3 62.8,97.7 C60.9,97 60.5,97.7 61.8,99.7 C62.4,100.7 63.1,100.6 65.1,99.6 C70.1,97 83.8,94.6 80,97 C78.1,98.2 78.5,98.5 84.5,100.8 C90.7,103.3 93,103.4 93,101.5 Z M97.7,61.4 C97.4,61.1 96.5,61 95.8,61.3 C95,61.6 95.3,61.9 96.4,61.9 C97.5,62 98.1,61.7 97.7,61.4 Z M99.8,49.2 C100,47.8 99.6,47 98.7,47 C97,47 95.7,49.7 96.6,51.1 C97.5,52.7 99.5,51.5 99.8,49.2 Z M49.3,43 C49.6,41.9 49.4,41.2 48.9,41.6 C48.4,41.9 48,42.8 48,43.6 C48,45.6 48.7,45.3 49.3,43 Z M50.5,37.2 C50.6,36.8 51.1,34.9 51.8,33 C53.2,29 53.3,27.4 53,17.2 C52.7,7.5 51,9.1 49.9,20.2 C49.4,24.8 49,29.2 48.9,30 C48.5,33.4 49.1,39.3 49.8,38.6 C50.2,38.2 50.5,37.5 50.5,37.2 Z" id="Shape" fill-rule="nonzero" transform="translate(107.500000, 111.500000) scale(-1, 1) rotate(-180.000000) translate(-107.500000, -111.500000) "></path>
            <path d="M123.5,150.984686 C126.3,149.784686 128.2,149.784686 127.5,150.984686 C127.2,151.584686 125.7,151.984686 124.2,151.884686 C121.8,151.884686 121.7,151.784686 123.5,150.984686 Z" id="Path" transform="translate(124.953232, 150.992343) scale(-1, 1) rotate(-180.000000) translate(-124.953232, -150.992343) "></path>
            <path d="M125.3,171.35 C126.2,171.15 127.6,171.15 128.3,171.35 C128.9,171.65 128.2,171.85 126.5,171.85 C124.9,171.85 124.3,171.65 125.3,171.35 Z" id="Path" transform="translate(126.661323, 171.525000) scale(-1, 1) rotate(-180.000000) translate(-126.661323, -171.525000) "></path>
            <path d="M133,175.35893 C133,174.45893 132.1,173.55893 131,173.25893 C129.9,172.95893 129,172.35893 129,171.85893 C129,170.35893 133.7,170.85893 135,172.45893 C135.7,173.35893 137.1,173.75893 138.1,173.45893 C140.8,172.55893 142.4,173.75893 140.9,175.55893 C139.3,177.55893 133,177.45893 133,175.35893 Z" id="Path" transform="translate(135.238314, 173.979465) scale(-1, 1) rotate(-180.000000) translate(-135.238314, -173.979465) "></path>
            <path d="M126,178.951736 C126,177.451736 124.9,176.951736 122.3,177.251736 C121.7,177.351736 120.9,176.951736 120.5,176.351736 C119.7,175.051736 122.3,175.051736 125.5,176.551736 C128.1,177.751736 128.7,178.851736 127,179.851736 C126.5,180.151736 126,179.751736 126,178.951736 Z" id="Path" transform="translate(124.156003, 177.675868) scale(-1, 1) rotate(-180.000000) translate(-124.156003, -177.675868) "></path>
            <path d="M105.4,193.823352 C105.8,193.023352 105.6,192.823352 104.7,193.223352 C103.3,193.723352 101.4,190.823352 102.5,189.823352 C102.8,189.523352 103,189.823352 103,190.523352 C103,191.523352 103.7,191.423352 105.5,190.223352 C106.9,189.323352 108,189.023352 108,189.523352 C108,190.023352 108.7,190.623352 109.5,191.023352 C110.4,191.323352 111,191.023352 111,190.023352 C111,189.223352 110.6,188.823352 110,189.123352 C109.4,189.423352 109.3,189.023352 109.6,188.223352 C110.5,185.823352 112,187.423352 112,190.723352 C112,192.923352 111.5,193.623352 110.1,193.623352 C109,193.623352 107.4,193.923352 106.4,194.323352 C105.2,194.723352 104.9,194.623352 105.4,193.823352 Z" id="Path" transform="translate(107.085738, 190.811676) scale(-1, 1) rotate(-180.000000) translate(-107.085738, -190.811676) "></path>
            <path d="M113,190.106279 C113,188.706279 113.3,188.706279 114.5,189.706279 C115.3,190.406279 116,191.106279 116,191.306279 C116,191.506279 115.3,191.706279 114.5,191.706279 C113.7,191.706279 113,191.006279 113,190.106279 Z" id="Path" transform="translate(114.500000, 190.353140) scale(-1, 1) rotate(-180.000000) translate(-114.500000, -190.353140) "></path>
            <path d="M83.8,126.35 C84.4,126.15 85.6,126.15 86.3,126.35 C86.9,126.65 86.4,126.85 85,126.85 C83.6,126.85 83.1,126.65 83.8,126.35 Z" id="Path" transform="translate(85.017769, 126.525000) scale(-1, 1) rotate(-180.000000) translate(-85.017769, -126.525000) "></path>
            <path d="M11,52.9226721 C11,52.4226721 11.5,51.4226721 12,50.6226721 C12.7,49.4226721 12.9,49.6226721 12.7,51.4226721 C12.6,53.3226721 11,54.7226721 11,52.9226721 Z" id="Path" transform="translate(11.886753, 51.811336) scale(-1, 1) rotate(-180.000000) translate(-11.886753, -51.811336) "></path>
            <path d="M46.5,145.689332 C45.6,144.189332 45.3,143.389332 45.9,143.689332 C46.5,144.089332 47,143.689332 47,142.889332 C47,139.689332 48.6,141.389332 48.8,144.789332 C49.1,148.989332 48.8,149.089332 46.5,145.689332 Z" id="Path" transform="translate(47.242329, 144.644666) scale(-1, 1) rotate(-180.000000) translate(-47.242329, -144.644666) "></path>
            <path d="M50.5,154 C50.2,153.5 50.4,153 50.9,153 C51.5,153 52,153.5 52,154 C52,154.6 51.8,155 51.6,155 C51.3,155 50.8,154.6 50.5,154 Z" id="Path" transform="translate(51.179523, 154.000000) scale(-1, 1) rotate(-180.000000) translate(-51.179523, -154.000000) "></path>
        </g>
    </g>
</svg>